<svg width="388" height="71" viewBox="0 0 388 71" fill="none" xmlns="http://www.w3.org/2000/svg">
<g clip-path="url(#clip0_1_1179)">
<path d="M191.119 53.7157C191.119 54.1346 191.053 54.5038 190.925 54.8273C190.797 55.1509 190.607 55.4205 190.36 55.6445C190.112 55.8643 189.807 56.0344 189.448 56.1464C189.089 56.2625 188.665 56.3206 188.174 56.3206H187.555V58.7015C187.555 58.7388 187.543 58.7762 187.518 58.8052C187.493 58.8342 187.452 58.8591 187.394 58.8799C187.336 58.9006 187.262 58.913 187.163 58.9255C187.068 58.9379 186.945 58.9421 186.796 58.9421C186.648 58.9421 186.528 58.9379 186.433 58.9255C186.334 58.913 186.26 58.8964 186.202 58.8799C186.144 58.8591 186.103 58.8342 186.082 58.8052C186.058 58.7762 186.049 58.7388 186.049 58.7015V51.9943C186.049 51.8159 186.095 51.6791 186.19 51.5878C186.285 51.4966 186.408 51.4509 186.561 51.4509H188.31C188.487 51.4509 188.652 51.4592 188.809 51.4717C188.966 51.4841 189.155 51.5131 189.378 51.5588C189.601 51.6044 189.824 51.6832 190.051 51.8035C190.277 51.9238 190.471 52.0731 190.632 52.2556C190.793 52.4381 190.913 52.6497 190.999 52.8944C191.082 53.1391 191.127 53.4129 191.127 53.7157H191.119ZM189.543 53.8235C189.543 53.5622 189.498 53.3465 189.407 53.1806C189.316 53.0105 189.201 52.8861 189.069 52.8073C188.937 52.7243 188.797 52.6746 188.648 52.6538C188.5 52.6331 188.351 52.6206 188.194 52.6206H187.551V55.1509H188.227C188.467 55.1509 188.669 55.1177 188.83 55.0513C188.99 54.985 189.122 54.8937 189.226 54.7776C189.329 54.6614 189.407 54.5204 189.461 54.3545C189.514 54.1927 189.539 54.0143 189.539 53.8235H189.543Z" fill="#323638"/>
<path d="M196.741 58.3116C196.741 58.4236 196.737 58.5148 196.729 58.5895C196.72 58.6642 196.704 58.7264 196.687 58.772C196.667 58.8176 196.646 58.8508 196.617 58.8716C196.588 58.8923 196.555 58.9047 196.522 58.9047H192.798C192.67 58.9047 192.567 58.8674 192.48 58.7928C192.393 58.7181 192.352 58.5978 192.352 58.4277V51.9279C192.352 51.7579 192.393 51.6376 192.48 51.5629C192.567 51.4883 192.674 51.4509 192.798 51.4509H196.498C196.531 51.4509 196.564 51.4592 196.588 51.48C196.613 51.5007 196.638 51.5339 196.658 51.5795C196.679 51.6251 196.691 51.6874 196.7 51.762C196.708 51.8367 196.712 51.9321 196.712 52.0482C196.712 52.1561 196.708 52.2473 196.7 52.322C196.691 52.3967 196.675 52.4589 196.658 52.5045C196.642 52.5501 196.617 52.5833 196.588 52.6041C196.564 52.6248 196.531 52.6372 196.498 52.6372H193.849V54.4582H196.089C196.122 54.4582 196.155 54.4706 196.184 54.4914C196.213 54.5121 196.238 54.5453 196.254 54.5909C196.275 54.6365 196.287 54.6946 196.296 54.7693C196.304 54.8439 196.308 54.9352 196.308 55.043C196.308 55.1509 196.304 55.2463 196.296 55.3209C196.287 55.3956 196.271 55.4537 196.254 55.4952C196.234 55.5408 196.213 55.5698 196.184 55.5906C196.155 55.6113 196.122 55.6196 196.089 55.6196H193.849V57.7226H196.518C196.551 57.7226 196.584 57.735 196.613 57.7558C196.642 57.7765 196.667 57.8097 196.683 57.8553C196.704 57.9009 196.716 57.9632 196.724 58.0378C196.733 58.1125 196.737 58.2037 196.737 58.3157L196.741 58.3116Z" fill="#323638"/>
<path d="M202.573 56.7436C202.573 57.1211 202.503 57.4529 202.363 57.7391C202.223 58.0253 202.021 58.2659 201.757 58.4608C201.497 58.6558 201.183 58.801 200.816 58.8964C200.453 58.9918 200.049 59.0416 199.604 59.0416C199.36 59.0416 199.133 59.025 198.931 58.9876C198.729 58.9503 198.548 58.9088 198.399 58.859C198.246 58.8093 198.127 58.7553 198.036 58.7056C197.945 58.6558 197.879 58.6143 197.842 58.5811C197.805 58.548 197.776 58.5148 197.756 58.4816C197.735 58.4484 197.723 58.3986 197.71 58.3364C197.698 58.2742 197.69 58.1954 197.686 58.0958C197.681 58.0004 197.677 57.8801 197.677 57.7391C197.677 57.5773 197.69 57.4695 197.718 57.4156C197.747 57.3616 197.789 57.3326 197.846 57.3326C197.892 57.3326 197.958 57.3575 198.04 57.4031C198.123 57.4488 198.23 57.5068 198.362 57.569C198.494 57.6313 198.647 57.6852 198.832 57.735C199.014 57.7847 199.232 57.8096 199.48 57.8096C199.686 57.8096 199.872 57.7847 200.041 57.735C200.21 57.6852 200.35 57.6147 200.466 57.5234C200.581 57.4322 200.672 57.3202 200.738 57.1916C200.804 57.063 200.837 56.922 200.837 56.7643C200.837 56.5901 200.808 56.4367 200.746 56.2956C200.684 56.1546 200.593 56.0385 200.47 55.9431C200.342 55.8477 200.185 55.773 199.991 55.7232C199.797 55.6693 199.566 55.6444 199.294 55.6444H198.51C198.453 55.6444 198.407 55.6361 198.374 55.6195C198.341 55.6029 198.312 55.578 198.292 55.5324C198.271 55.4909 198.259 55.4329 198.251 55.3582C198.246 55.2835 198.242 55.184 198.242 55.0637C198.242 54.9517 198.242 54.8604 198.255 54.7899C198.263 54.7194 198.275 54.6613 198.296 54.6199C198.317 54.5784 198.345 54.5494 198.374 54.5286C198.407 54.512 198.444 54.5037 198.49 54.5037H199.286C199.517 54.5037 199.723 54.4788 199.905 54.4332C200.086 54.3876 200.235 54.3171 200.354 54.23C200.474 54.1387 200.565 54.0309 200.631 53.9023C200.692 53.7737 200.725 53.6285 200.725 53.4626C200.725 53.3257 200.705 53.1971 200.659 53.081C200.614 52.9648 200.548 52.8694 200.457 52.7906C200.367 52.7118 200.251 52.6496 200.107 52.604C199.962 52.5584 199.797 52.5376 199.604 52.5376C199.373 52.5376 199.166 52.5625 198.985 52.6123C198.803 52.662 198.642 52.716 198.506 52.774C198.37 52.8321 198.255 52.886 198.164 52.94C198.069 52.9897 197.999 53.0188 197.954 53.0188C197.929 53.0188 197.904 53.0105 197.883 52.9939C197.863 52.9773 197.846 52.9524 197.834 52.9109C197.822 52.8694 197.809 52.8155 197.801 52.745C197.797 52.6745 197.793 52.5874 197.793 52.4754C197.793 52.3966 197.793 52.3261 197.797 52.2638C197.801 52.2016 197.809 52.1394 197.822 52.0855C197.834 52.0316 197.846 51.9859 197.867 51.9445C197.888 51.903 197.916 51.8656 197.958 51.8283C197.999 51.791 198.081 51.7412 198.205 51.679C198.329 51.6168 198.482 51.5629 198.659 51.5089C198.836 51.4592 199.043 51.4135 199.265 51.3803C199.488 51.3472 199.727 51.3306 199.983 51.3306C200.379 51.3306 200.725 51.372 201.022 51.455C201.319 51.538 201.567 51.6624 201.765 51.82C201.963 51.9818 202.111 52.1767 202.21 52.409C202.309 52.6413 202.359 52.9068 202.359 53.2054C202.359 53.4419 202.326 53.6617 202.26 53.8566C202.194 54.0516 202.103 54.2258 201.984 54.3751C201.864 54.5245 201.72 54.6489 201.555 54.7526C201.39 54.8522 201.204 54.9268 201.002 54.9724V54.9849C201.233 55.0098 201.447 55.0761 201.641 55.1798C201.835 55.2835 202 55.4121 202.136 55.5697C202.272 55.7274 202.38 55.9057 202.458 56.109C202.536 56.3122 202.573 56.5279 202.573 56.7561V56.7436Z" fill="#323638"/>
<path d="M209.87 58.7098C209.87 58.7471 209.858 58.7803 209.833 58.8093C209.808 58.8384 209.767 58.8632 209.709 58.8798C209.652 58.9006 209.573 58.913 209.478 58.9213C209.383 58.9296 209.26 58.9338 209.115 58.9338C208.971 58.9338 208.847 58.9296 208.752 58.9213C208.653 58.913 208.579 58.8964 208.521 58.8798C208.468 58.8591 208.426 58.8384 208.406 58.8093C208.385 58.7803 208.373 58.7471 208.373 58.7098V54.7817C208.373 54.6324 208.373 54.4872 208.377 54.342C208.377 54.1968 208.385 54.0724 208.393 53.9604H208.381C208.352 54.0143 208.315 54.0765 208.274 54.1471C208.233 54.2176 208.187 54.2922 208.138 54.371C208.088 54.4499 208.039 54.5287 207.985 54.6116C207.932 54.6946 207.878 54.7734 207.824 54.8522L205.246 58.7181C205.217 58.7595 205.184 58.7969 205.151 58.8301C205.118 58.8591 205.077 58.884 205.024 58.9006C204.974 58.9172 204.908 58.9296 204.834 58.9338C204.76 58.9379 204.665 58.9421 204.545 58.9421C204.397 58.9421 204.277 58.9379 204.186 58.9296C204.095 58.9213 204.021 58.9047 203.972 58.8881C203.922 58.8715 203.885 58.8425 203.864 58.8135C203.844 58.7844 203.836 58.7471 203.836 58.7056V51.6542C203.836 51.6168 203.848 51.5836 203.873 51.5546C203.897 51.5256 203.939 51.5007 204.001 51.4841C204.058 51.4634 204.137 51.4509 204.232 51.4426C204.326 51.4343 204.446 51.4302 204.59 51.4302C204.735 51.4302 204.863 51.4343 204.958 51.4426C205.052 51.4509 205.131 51.4675 205.189 51.4841C205.246 51.5048 205.287 51.5256 205.308 51.5546C205.333 51.5836 205.341 51.6168 205.341 51.6542V55.6071C205.341 55.7316 205.341 55.8602 205.337 55.997C205.337 56.1339 205.329 56.2708 205.32 56.3994H205.333C205.399 56.2832 205.481 56.1464 205.58 55.9846C205.679 55.8228 205.782 55.6652 205.89 55.5117L208.468 51.6459C208.492 51.6085 208.521 51.5753 208.554 51.5463C208.583 51.5173 208.624 51.4924 208.678 51.4758C208.732 51.4592 208.794 51.4426 208.872 51.4343C208.95 51.426 209.045 51.4219 209.165 51.4219C209.309 51.4219 209.429 51.426 209.515 51.4343C209.606 51.4426 209.676 51.4592 209.73 51.4758C209.784 51.4924 209.821 51.5173 209.841 51.5463C209.862 51.5753 209.874 51.6127 209.874 51.6542V58.7098H209.87Z" fill="#323638"/>
<path d="M218.38 60.6635C218.38 60.7008 218.371 60.734 218.351 60.763C218.33 60.7879 218.297 60.8128 218.248 60.8294C218.198 60.846 218.132 60.8626 218.046 60.8709C217.963 60.8792 217.852 60.8833 217.72 60.8833C217.588 60.8833 217.485 60.8792 217.402 60.8709C217.32 60.8626 217.254 60.846 217.2 60.8294C217.151 60.8128 217.113 60.7921 217.093 60.763C217.072 60.734 217.06 60.7049 217.06 60.6635V58.9047H212.126V60.6635C212.126 60.7008 212.114 60.734 212.093 60.763C212.073 60.7879 212.036 60.8128 211.986 60.8294C211.937 60.846 211.867 60.8626 211.784 60.8709C211.702 60.8792 211.594 60.8833 211.462 60.8833C211.33 60.8833 211.227 60.8792 211.141 60.8709C211.058 60.8626 210.988 60.846 210.939 60.8294C210.889 60.8128 210.852 60.7921 210.831 60.763C210.811 60.734 210.802 60.7049 210.802 60.6635V57.9839C210.794 57.8719 210.815 57.7931 210.864 57.7433C210.914 57.6936 210.984 57.6728 211.079 57.6728H211.421C211.512 57.5442 211.599 57.4073 211.681 57.2705C211.764 57.1336 211.842 56.9677 211.92 56.7769C211.999 56.5861 212.073 56.3579 212.147 56.0966C212.221 55.8353 212.296 55.5117 212.366 55.1301C212.44 54.7485 212.51 54.3005 212.584 53.7779C212.659 53.2553 212.737 52.6455 212.815 51.9445C212.84 51.7703 212.881 51.6459 212.947 51.5671C213.013 51.4883 213.112 51.4509 213.244 51.4509H217.031C217.163 51.4509 217.27 51.4883 217.344 51.5671C217.423 51.6459 217.46 51.7662 217.46 51.9279V57.6728H218.091C218.194 57.6728 218.268 57.7018 218.31 57.7558C218.351 57.8097 218.371 57.8885 218.371 57.9881V60.6593L218.38 60.6635ZM215.967 52.6746H214.238C214.168 53.2594 214.102 53.7696 214.036 54.2134C213.97 54.6573 213.904 55.0472 213.834 55.379C213.768 55.7108 213.698 56.0012 213.632 56.2418C213.566 56.4824 213.492 56.6939 213.422 56.8681C213.352 57.0423 213.277 57.1958 213.203 57.3244C213.129 57.453 213.05 57.565 212.968 57.6687H215.971V52.6704L215.967 52.6746Z" fill="#323638"/>
<path d="M223.89 58.3116C223.89 58.4236 223.886 58.5148 223.878 58.5895C223.87 58.6642 223.853 58.7264 223.837 58.772C223.816 58.8176 223.795 58.8508 223.767 58.8716C223.738 58.8923 223.705 58.9047 223.672 58.9047H219.947C219.819 58.9047 219.716 58.8674 219.629 58.7928C219.543 58.7181 219.502 58.5978 219.502 58.4277V51.9279C219.502 51.7579 219.543 51.6376 219.629 51.5629C219.716 51.4883 219.823 51.4509 219.947 51.4509H223.647C223.68 51.4509 223.713 51.4592 223.738 51.48C223.762 51.5007 223.787 51.5339 223.808 51.5795C223.829 51.6251 223.841 51.6874 223.849 51.762C223.857 51.8367 223.861 51.9321 223.861 52.0482C223.861 52.1561 223.857 52.2473 223.849 52.322C223.841 52.3967 223.824 52.4589 223.808 52.5045C223.791 52.5501 223.767 52.5833 223.738 52.6041C223.713 52.6248 223.68 52.6372 223.647 52.6372H220.999V54.4582H223.239C223.272 54.4582 223.305 54.4706 223.334 54.4914C223.362 54.5121 223.387 54.5453 223.404 54.5909C223.424 54.6365 223.437 54.6946 223.445 54.7693C223.453 54.8439 223.457 54.9352 223.457 55.043C223.457 55.1509 223.453 55.2463 223.445 55.3209C223.437 55.3956 223.42 55.4537 223.404 55.4952C223.383 55.5408 223.362 55.5698 223.334 55.5906C223.305 55.6113 223.272 55.6196 223.239 55.6196H220.999V57.7226H223.668C223.701 57.7226 223.734 57.735 223.762 57.7558C223.791 57.7765 223.816 57.8097 223.833 57.8553C223.853 57.9009 223.866 57.9632 223.874 58.0378C223.882 58.1125 223.886 58.2037 223.886 58.3157L223.89 58.3116Z" fill="#323638"/>
<path d="M231.063 58.6973C231.063 58.7347 231.051 58.772 231.026 58.801C231.002 58.8301 230.96 58.855 230.903 58.8757C230.845 58.8964 230.771 58.9089 230.672 58.9213C230.577 58.9338 230.457 58.9379 230.313 58.9379C230.168 58.9379 230.041 58.9338 229.942 58.9213C229.843 58.9089 229.768 58.8923 229.711 58.8757C229.657 58.855 229.616 58.8301 229.591 58.801C229.566 58.772 229.554 58.7347 229.554 58.6973V55.6859H226.782V58.6973C226.782 58.7347 226.77 58.772 226.749 58.801C226.724 58.8301 226.687 58.855 226.629 58.8757C226.572 58.8964 226.497 58.9089 226.398 58.9213C226.303 58.9338 226.18 58.9379 226.031 58.9379C225.883 58.9379 225.763 58.9338 225.668 58.9213C225.569 58.9089 225.495 58.8923 225.437 58.8757C225.379 58.855 225.338 58.8301 225.313 58.801C225.289 58.772 225.276 58.7347 225.276 58.6973V51.6583C225.276 51.621 225.289 51.5878 225.313 51.5546C225.338 51.5256 225.379 51.5007 225.437 51.4799C225.495 51.4592 225.573 51.4468 225.668 51.4343C225.763 51.4219 225.887 51.4177 226.031 51.4177C226.176 51.4177 226.303 51.426 226.398 51.4343C226.493 51.4426 226.572 51.4592 226.629 51.4799C226.687 51.5007 226.728 51.5256 226.749 51.5546C226.774 51.5878 226.782 51.621 226.782 51.6583V54.3959H229.554V51.6583C229.554 51.621 229.566 51.5878 229.591 51.5546C229.616 51.5256 229.657 51.5007 229.711 51.4799C229.764 51.4592 229.843 51.4468 229.942 51.4343C230.041 51.4219 230.16 51.4177 230.313 51.4177C230.465 51.4177 230.577 51.426 230.672 51.4343C230.766 51.4468 230.845 51.4592 230.903 51.4799C230.96 51.5007 231.002 51.5256 231.026 51.5546C231.051 51.5878 231.063 51.621 231.063 51.6583V58.6973Z" fill="#323638"/>
<path d="M239.396 60.6634C239.396 60.7008 239.387 60.734 239.367 60.763C239.346 60.7879 239.313 60.8128 239.268 60.8294C239.218 60.846 239.152 60.8625 239.066 60.8708C238.979 60.8791 238.872 60.8833 238.744 60.8833C238.616 60.8833 238.509 60.8791 238.422 60.8708C238.34 60.8625 238.27 60.846 238.22 60.8294C238.171 60.8128 238.133 60.792 238.113 60.763C238.092 60.734 238.08 60.7049 238.08 60.6634V58.9047H233.175C233.043 58.9047 232.936 58.8674 232.858 58.7886C232.779 58.7098 232.742 58.5895 232.742 58.4277V51.6459C232.742 51.6085 232.755 51.5753 232.779 51.5463C232.804 51.5173 232.845 51.4924 232.903 51.4758C232.961 51.4551 233.039 51.4426 233.134 51.4343C233.229 51.426 233.353 51.4219 233.497 51.4219C233.642 51.4219 233.769 51.426 233.864 51.4343C233.959 51.4426 234.038 51.4592 234.095 51.4758C234.153 51.4965 234.194 51.5173 234.215 51.5463C234.24 51.5753 234.248 51.6085 234.248 51.6459V57.6479H236.987V51.6459C236.987 51.6085 236.999 51.5753 237.024 51.5463C237.049 51.5173 237.09 51.4924 237.148 51.4758C237.205 51.4551 237.284 51.4426 237.379 51.4343C237.478 51.426 237.597 51.4219 237.742 51.4219C237.886 51.4219 238.014 51.426 238.109 51.4343C238.204 51.4426 238.282 51.4592 238.34 51.4758C238.397 51.4965 238.439 51.5173 238.459 51.5463C238.484 51.5753 238.492 51.6085 238.492 51.6459V57.6479H239.144C239.239 57.6479 239.305 57.6686 239.342 57.7143C239.379 57.7599 239.396 57.8387 239.396 57.959V60.6593V60.6634Z" fill="#323638"/>
<path d="M246.548 58.7098C246.548 58.7471 246.536 58.7803 246.511 58.8093C246.486 58.8384 246.445 58.8632 246.387 58.8798C246.329 58.9006 246.251 58.913 246.156 58.9213C246.061 58.9296 245.938 58.9338 245.793 58.9338C245.649 58.9338 245.525 58.9296 245.43 58.9213C245.331 58.913 245.257 58.8964 245.199 58.8798C245.146 58.8591 245.104 58.8384 245.084 58.8093C245.063 58.7803 245.051 58.7471 245.051 58.7098V54.7817C245.051 54.6324 245.051 54.4872 245.055 54.342C245.055 54.1968 245.063 54.0724 245.071 53.9604H245.059C245.03 54.0143 244.993 54.0765 244.952 54.1471C244.91 54.2176 244.865 54.2922 244.816 54.371C244.766 54.4499 244.717 54.5287 244.663 54.6116C244.609 54.6946 244.556 54.7734 244.502 54.8522L241.924 58.7181C241.895 58.7595 241.862 58.7969 241.829 58.8301C241.796 58.8591 241.755 58.884 241.701 58.9006C241.652 58.9172 241.586 58.9296 241.512 58.9338C241.437 58.9379 241.343 58.9421 241.223 58.9421C241.074 58.9421 240.955 58.9379 240.864 58.9296C240.773 58.9213 240.699 58.9047 240.65 58.8881C240.6 58.8715 240.563 58.8425 240.542 58.8135C240.522 58.7844 240.513 58.7471 240.513 58.7056V51.6542C240.513 51.6168 240.526 51.5836 240.551 51.5546C240.575 51.5256 240.617 51.5007 240.678 51.4841C240.736 51.4634 240.815 51.4509 240.909 51.4426C241.004 51.4343 241.124 51.4302 241.268 51.4302C241.413 51.4302 241.54 51.4343 241.635 51.4426C241.73 51.4509 241.809 51.4675 241.866 51.4841C241.924 51.5048 241.965 51.5256 241.986 51.5546C242.011 51.5836 242.019 51.6168 242.019 51.6542V55.6071C242.019 55.7316 242.019 55.8602 242.015 55.997C242.015 56.1339 242.007 56.2708 241.998 56.3994H242.011C242.077 56.2832 242.159 56.1464 242.258 55.9846C242.357 55.8228 242.46 55.6652 242.568 55.5117L245.146 51.6459C245.17 51.6085 245.199 51.5753 245.232 51.5463C245.261 51.5173 245.302 51.4924 245.356 51.4758C245.41 51.4592 245.471 51.4426 245.55 51.4343C245.628 51.426 245.723 51.4219 245.843 51.4219C245.987 51.4219 246.107 51.426 246.193 51.4343C246.284 51.4426 246.354 51.4592 246.408 51.4758C246.461 51.4924 246.499 51.5173 246.519 51.5463C246.54 51.5753 246.552 51.6127 246.552 51.6542V58.7098H246.548Z" fill="#323638"/>
<path d="M253.337 58.7098C253.337 58.7471 253.325 58.7803 253.304 58.8093C253.28 58.8384 253.243 58.8633 253.189 58.8799C253.135 58.9006 253.057 58.913 252.958 58.9213C252.859 58.9296 252.739 58.9338 252.595 58.9338C252.451 58.9338 252.323 58.9296 252.228 58.9213C252.133 58.913 252.055 58.8964 251.997 58.8799C251.939 58.8591 251.898 58.8384 251.873 58.8093C251.848 58.7803 251.84 58.7471 251.84 58.7098V55.9224H251.283C251.052 55.9224 250.879 55.9473 250.759 55.9929C250.64 56.0385 250.533 56.109 250.438 56.2044C250.343 56.2998 250.26 56.4201 250.19 56.5653C250.116 56.7105 250.046 56.8806 249.98 57.0755L249.419 58.6891C249.398 58.7347 249.373 58.7762 249.345 58.8052C249.316 58.8384 249.266 58.8633 249.204 58.884C249.142 58.9047 249.06 58.9213 248.957 58.9255C248.854 58.9338 248.722 58.9379 248.561 58.9379C248.383 58.9379 248.247 58.9338 248.144 58.9213C248.041 58.9089 247.967 58.8923 247.913 58.8716C247.86 58.8508 247.827 58.8259 247.81 58.801C247.794 58.7762 247.785 58.7471 247.785 58.7139C247.785 58.6766 247.794 58.6268 247.806 58.5729C247.818 58.519 247.847 58.4319 247.889 58.324L248.445 56.8598C248.52 56.669 248.594 56.4989 248.668 56.3579C248.742 56.2169 248.829 56.0883 248.924 55.9763C249.019 55.8643 249.118 55.7689 249.221 55.6901C249.324 55.6113 249.439 55.5532 249.567 55.5034C249.332 55.4371 249.122 55.3541 248.94 55.2463C248.759 55.1426 248.606 55.014 248.482 54.8605C248.359 54.707 248.264 54.5328 248.202 54.3379C248.14 54.1388 248.107 53.9189 248.107 53.6742C248.107 53.3382 248.165 53.0313 248.28 52.7575C248.396 52.4838 248.569 52.2515 248.8 52.0565C249.031 51.8657 249.316 51.7164 249.658 51.6085C250 51.5048 250.475 51.4509 251.085 51.4509H252.9C253.024 51.4509 253.127 51.4883 253.214 51.5629C253.3 51.6376 253.342 51.7579 253.342 51.9279V58.7098H253.337ZM251.836 52.6206H251.065C250.739 52.6206 250.5 52.6455 250.339 52.6953C250.178 52.7451 250.046 52.8156 249.947 52.911C249.848 53.0064 249.774 53.1184 249.728 53.2511C249.683 53.3839 249.658 53.529 249.658 53.6908C249.658 53.8526 249.683 53.9936 249.732 54.1263C249.782 54.2591 249.86 54.3752 249.963 54.4706C250.066 54.566 250.198 54.6448 250.359 54.6987C250.52 54.7527 250.747 54.7776 251.048 54.7776H251.844V52.6165L251.836 52.6206Z" fill="#323638"/>
<path d="M264.561 60.6635C264.561 60.7008 264.553 60.734 264.532 60.763C264.512 60.7879 264.479 60.8128 264.429 60.8294C264.38 60.846 264.314 60.8626 264.227 60.8709C264.144 60.8792 264.033 60.8833 263.901 60.8833C263.769 60.8833 263.666 60.8792 263.584 60.8709C263.501 60.8626 263.435 60.846 263.381 60.8294C263.332 60.8128 263.295 60.7921 263.274 60.763C263.254 60.734 263.241 60.7049 263.241 60.6635V58.9047H258.308V60.6635C258.308 60.7008 258.296 60.734 258.275 60.763C258.254 60.7879 258.217 60.8128 258.168 60.8294C258.118 60.846 258.048 60.8626 257.966 60.8709C257.883 60.8792 257.776 60.8833 257.644 60.8833C257.512 60.8833 257.409 60.8792 257.322 60.8709C257.24 60.8626 257.169 60.846 257.12 60.8294C257.07 60.8128 257.033 60.7921 257.013 60.763C256.992 60.734 256.984 60.7049 256.984 60.6635V57.9839C256.976 57.8719 256.996 57.7931 257.046 57.7433C257.095 57.6936 257.165 57.6728 257.26 57.6728H257.603C257.693 57.5442 257.78 57.4073 257.862 57.2705C257.945 57.1336 258.023 56.9677 258.102 56.7769C258.18 56.5861 258.254 56.3579 258.329 56.0966C258.403 55.8353 258.477 55.5117 258.547 55.1301C258.621 54.7485 258.691 54.3005 258.766 53.7779C258.84 53.2553 258.918 52.6455 258.997 51.9445C259.021 51.7703 259.063 51.6459 259.129 51.5671C259.195 51.4883 259.294 51.4509 259.426 51.4509H263.212C263.344 51.4509 263.452 51.4883 263.526 51.5671C263.604 51.6459 263.641 51.7662 263.641 51.9279V57.6728H264.272C264.375 57.6728 264.45 57.7018 264.491 57.7558C264.532 57.8097 264.553 57.8885 264.553 57.9881V60.6593L264.561 60.6635ZM262.148 52.6746H260.42C260.35 53.2594 260.284 53.7696 260.218 54.2134C260.152 54.6573 260.086 55.0472 260.016 55.379C259.95 55.7108 259.879 56.0012 259.813 56.2418C259.747 56.4824 259.673 56.6939 259.603 56.8681C259.533 57.0423 259.459 57.1958 259.384 57.3244C259.31 57.453 259.232 57.565 259.149 57.6687H262.152V52.6704L262.148 52.6746Z" fill="#323638"/>
<path d="M271.437 58.7098C271.437 58.7471 271.425 58.7803 271.404 58.8093C271.379 58.8384 271.342 58.8633 271.284 58.8799C271.227 58.9006 271.148 58.913 271.053 58.9213C270.959 58.9296 270.835 58.9338 270.691 58.9338C270.546 58.9338 270.418 58.9296 270.323 58.9213C270.229 58.913 270.15 58.8965 270.092 58.8799C270.035 58.8633 269.993 58.8384 269.973 58.8093C269.952 58.7803 269.94 58.7471 269.94 58.7098V52.6953H268.348C268.24 53.5747 268.133 54.342 268.022 54.9974C267.91 55.6528 267.791 56.2169 267.667 56.6856C267.543 57.1543 267.403 57.5359 267.25 57.8387C267.098 58.1374 266.929 58.3738 266.735 58.548C266.541 58.7222 266.322 58.8425 266.083 58.9089C265.844 58.9753 265.563 59.0084 265.254 59.0084C265.196 59.0084 265.147 59.0001 265.106 58.9836C265.064 58.967 265.031 58.9379 265.007 58.8965C264.982 58.855 264.965 58.7928 264.953 58.7181C264.941 58.6393 264.936 58.5439 264.936 58.4236C264.936 58.2577 264.936 58.1249 264.949 58.0254C264.961 57.9258 264.969 57.8429 264.99 57.789C265.011 57.735 265.035 57.6977 265.064 57.677C265.093 57.6562 265.13 57.6479 265.172 57.6479C265.291 57.6479 265.403 57.623 265.514 57.5774C265.625 57.5318 265.728 57.4364 265.827 57.2912C265.93 57.1502 266.025 56.9511 266.12 56.6939C266.215 56.4367 266.306 56.0966 266.397 55.6777C266.487 55.2546 266.574 54.7444 266.665 54.1388C266.755 53.5332 266.846 52.8156 266.937 51.9819C266.962 51.7869 267.007 51.65 267.073 51.5712C267.139 51.4924 267.242 51.4551 267.378 51.4551H271.016C271.152 51.4551 271.26 51.4924 271.334 51.5712C271.408 51.65 271.445 51.7703 271.445 51.9321V58.7139L271.437 58.7098Z" fill="#323638"/>
<path d="M278.231 58.7098C278.231 58.7471 278.218 58.7803 278.198 58.8093C278.177 58.8384 278.136 58.8633 278.082 58.8799C278.028 58.8964 277.95 58.913 277.851 58.9213C277.756 58.9296 277.632 58.9338 277.488 58.9338C277.344 58.9338 277.216 58.9296 277.121 58.9213C277.026 58.913 276.948 58.8964 276.89 58.8799C276.832 58.8633 276.791 58.8384 276.766 58.8093C276.746 58.7803 276.733 58.7471 276.733 58.7098V55.9224H276.176C275.945 55.9224 275.772 55.9473 275.653 55.9929C275.533 56.0385 275.426 56.109 275.331 56.2044C275.236 56.2998 275.153 56.4201 275.083 56.5653C275.009 56.7105 274.939 56.8806 274.873 57.0755L274.312 58.6891C274.291 58.7347 274.267 58.7762 274.238 58.8052C274.209 58.8384 274.159 58.8633 274.098 58.884C274.036 58.9047 273.953 58.9213 273.85 58.9255C273.747 58.9338 273.615 58.9379 273.454 58.9379C273.277 58.9379 273.141 58.9338 273.037 58.9213C272.934 58.9089 272.86 58.8923 272.806 58.8716C272.753 58.8508 272.72 58.8259 272.703 58.801C272.687 58.7762 272.679 58.7471 272.679 58.7139C272.679 58.6766 272.687 58.6268 272.699 58.5729C272.712 58.519 272.74 58.4319 272.782 58.324L273.339 56.8598C273.413 56.669 273.487 56.4989 273.561 56.3579C273.636 56.2169 273.722 56.0883 273.817 55.9763C273.912 55.8643 274.011 55.7689 274.114 55.6901C274.217 55.6113 274.333 55.5532 274.461 55.5034C274.225 55.4371 274.015 55.3541 273.834 55.2463C273.652 55.1426 273.499 55.014 273.376 54.8605C273.252 54.707 273.157 54.5328 273.095 54.3379C273.033 54.1388 273 53.9189 273 53.6742C273 53.3382 273.058 53.0313 273.174 52.7575C273.289 52.4838 273.462 52.2515 273.693 52.0565C273.924 51.8657 274.209 51.7164 274.551 51.6085C274.894 51.5048 275.368 51.4509 275.978 51.4509H277.793C277.917 51.4509 278.02 51.4883 278.107 51.5629C278.193 51.6376 278.235 51.7579 278.235 51.9279V58.7098H278.231ZM276.729 52.6206H275.958C275.632 52.6206 275.389 52.6455 275.228 52.6953C275.067 52.7451 274.935 52.8156 274.836 52.911C274.733 53.0064 274.663 53.1184 274.617 53.2511C274.572 53.3839 274.547 53.529 274.547 53.6908C274.547 53.8526 274.572 53.9936 274.621 54.1263C274.671 54.2591 274.749 54.3752 274.852 54.4706C274.955 54.566 275.087 54.6448 275.248 54.6987C275.409 54.7527 275.636 54.7776 275.937 54.7776H276.733V52.6165L276.729 52.6206Z" fill="#323638"/>
<path d="M288.398 58.7098C288.398 58.7471 288.386 58.7803 288.365 58.8093C288.345 58.8384 288.303 58.8633 288.246 58.8799C288.188 58.8964 288.11 58.913 288.015 58.9213C287.916 58.9296 287.796 58.9338 287.652 58.9338C287.507 58.9338 287.384 58.9296 287.289 58.9213C287.194 58.913 287.115 58.8964 287.058 58.8799C287 58.8633 286.959 58.8384 286.934 58.8093C286.909 58.7803 286.897 58.7471 286.897 58.7098V52.7119H284.137V58.7098C284.137 58.7471 284.125 58.7803 284.1 58.8093C284.076 58.8384 284.034 58.8633 283.977 58.8799C283.919 58.8964 283.845 58.913 283.746 58.9213C283.651 58.9296 283.527 58.9338 283.378 58.9338C283.23 58.9338 283.11 58.9296 283.015 58.9213C282.921 58.913 282.842 58.8964 282.784 58.8799C282.727 58.8633 282.685 58.8384 282.665 58.8093C282.64 58.7803 282.632 58.7471 282.632 58.7098V51.9279C282.632 51.7662 282.673 51.6459 282.751 51.5671C282.83 51.4883 282.937 51.4509 283.073 51.4509H287.973C288.11 51.4509 288.217 51.4883 288.295 51.5671C288.374 51.6459 288.411 51.7662 288.411 51.9279V58.7098H288.398Z" fill="#323638"/>
<path d="M296.739 55.0927C296.739 55.7108 296.664 56.2666 296.512 56.7519C296.359 57.2414 296.132 57.652 295.831 57.9921C295.53 58.3323 295.155 58.5894 294.713 58.7719C294.268 58.9503 293.752 59.0416 293.171 59.0416C292.589 59.0416 292.09 58.9669 291.661 58.8134C291.232 58.6599 290.873 58.4318 290.589 58.1207C290.3 57.8096 290.085 57.4156 289.945 56.9344C289.801 56.4532 289.731 55.885 289.731 55.2296C289.731 54.6282 289.809 54.0848 289.962 53.6036C290.114 53.1225 290.341 52.7118 290.642 52.3758C290.943 52.0399 291.319 51.7785 291.76 51.596C292.205 51.4177 292.721 51.3264 293.311 51.3264C293.901 51.3264 294.367 51.4011 294.796 51.5504C295.225 51.6997 295.584 51.932 295.872 52.2431C296.161 52.5542 296.38 52.9483 296.524 53.4211C296.669 53.894 296.743 54.4539 296.743 55.101L296.739 55.0927ZM295.159 55.1757C295.159 54.7816 295.13 54.4291 295.068 54.1055C295.006 53.7861 294.903 53.5082 294.755 53.2801C294.606 53.052 294.412 52.8736 294.169 52.7492C293.926 52.6247 293.62 52.5625 293.253 52.5625C292.886 52.5625 292.573 52.633 292.325 52.774C292.078 52.9151 291.875 53.1017 291.723 53.334C291.57 53.5704 291.463 53.8401 291.401 54.1553C291.339 54.4705 291.306 54.7982 291.306 55.1508C291.306 55.5573 291.335 55.9223 291.397 56.2459C291.459 56.5694 291.562 56.8473 291.706 57.0796C291.851 57.3119 292.049 57.4861 292.292 57.6064C292.535 57.7267 292.845 57.7889 293.216 57.7889C293.587 57.7889 293.897 57.7184 294.144 57.5815C294.392 57.4446 294.594 57.2538 294.746 57.0174C294.899 56.7809 295.006 56.503 295.068 56.1836C295.13 55.8684 295.163 55.5283 295.163 55.1715L295.159 55.1757Z" fill="#323638"/>
<path d="M306.457 58.7056C306.457 58.7471 306.444 58.7844 306.424 58.8135C306.399 58.8425 306.358 58.8674 306.3 58.884C306.238 58.9047 306.16 58.9172 306.061 58.9255C305.958 58.9338 305.83 58.9379 305.673 58.9379C305.516 58.9379 305.38 58.9338 305.277 58.9255C305.174 58.9172 305.091 58.9006 305.034 58.8798C304.972 58.8591 304.931 58.8301 304.902 58.7927C304.873 58.7554 304.848 58.7098 304.832 58.6559L304.299 56.9676C304.225 56.7312 304.147 56.5321 304.06 56.3703C303.974 56.2127 303.879 56.08 303.767 55.9804C303.656 55.8809 303.536 55.8104 303.4 55.7689C303.264 55.7274 303.107 55.7067 302.934 55.7067H302.641V58.689C302.641 58.7305 302.629 58.7678 302.608 58.7969C302.588 58.8259 302.546 58.8508 302.493 58.8715C302.439 58.8923 302.361 58.9089 302.266 58.9172C302.171 58.9255 302.051 58.9296 301.907 58.9296C301.763 58.9296 301.639 58.9255 301.544 58.9172C301.449 58.9089 301.375 58.8923 301.317 58.8715C301.259 58.8508 301.222 58.8259 301.202 58.7969C301.181 58.7678 301.169 58.7305 301.169 58.689V55.7067H300.876C300.686 55.7067 300.525 55.7316 300.381 55.7772C300.236 55.8228 300.117 55.9016 300.01 56.0012C299.902 56.1049 299.812 56.2335 299.729 56.3911C299.651 56.5487 299.577 56.7395 299.506 56.9635L298.978 58.6517C298.958 58.7056 298.937 58.7513 298.908 58.7886C298.879 58.8259 298.834 58.855 298.772 58.8757C298.71 58.8964 298.632 58.913 298.529 58.9213C298.426 58.9296 298.298 58.9338 298.137 58.9338C297.976 58.9338 297.844 58.9296 297.745 58.9213C297.646 58.913 297.568 58.8964 297.506 58.8798C297.444 58.8632 297.407 58.8384 297.382 58.8093C297.357 58.7803 297.349 58.743 297.349 58.7015C297.349 58.6807 297.349 58.66 297.349 58.631C297.349 58.6061 297.357 58.5729 297.366 58.5356C297.374 58.4982 297.386 58.4567 297.403 58.407C297.419 58.3572 297.44 58.295 297.465 58.2286L297.98 56.7437C298.075 56.4657 298.17 56.2335 298.269 56.0427C298.364 55.8519 298.467 55.6942 298.574 55.5657C298.681 55.4371 298.797 55.3334 298.925 55.2504C299.049 55.1674 299.193 55.0969 299.35 55.0347C299.218 54.9891 299.094 54.931 298.978 54.8564C298.867 54.7858 298.76 54.6863 298.665 54.566C298.566 54.4457 298.475 54.2964 298.384 54.1139C298.294 53.9314 298.207 53.7157 298.116 53.4585L297.675 52.1229C297.634 51.9984 297.605 51.903 297.588 51.8325C297.572 51.762 297.564 51.6998 297.564 51.65C297.564 51.6085 297.576 51.5712 297.597 51.5422C297.617 51.5131 297.658 51.4924 297.712 51.4716C297.766 51.4551 297.844 51.4426 297.943 51.4302C298.038 51.4219 298.166 51.4177 298.318 51.4177C298.479 51.4177 298.607 51.4219 298.706 51.4302C298.805 51.4385 298.884 51.4551 298.941 51.4758C298.999 51.4965 299.04 51.5256 299.065 51.5629C299.09 51.6002 299.11 51.6459 299.127 51.6998L299.597 53.276C299.663 53.4958 299.733 53.6783 299.808 53.8318C299.882 53.9811 299.968 54.1014 300.067 54.1927C300.166 54.2839 300.282 54.3503 300.41 54.3918C300.538 54.4333 300.694 54.454 300.876 54.454H301.169V51.6542C301.169 51.6127 301.181 51.5753 301.202 51.5463C301.222 51.5173 301.259 51.4924 301.317 51.4758C301.375 51.4592 301.449 51.4426 301.544 51.4343C301.639 51.426 301.759 51.4219 301.907 51.4219C302.056 51.4219 302.171 51.426 302.266 51.4343C302.361 51.4426 302.435 51.4592 302.493 51.4758C302.55 51.4965 302.588 51.5173 302.608 51.5463C302.633 51.5753 302.641 51.6127 302.641 51.6542V54.454H302.934C303.107 54.454 303.256 54.4333 303.388 54.3876C303.52 54.342 303.635 54.2715 303.738 54.1761C303.837 54.0807 303.928 53.9563 304.007 53.8111C304.085 53.6659 304.151 53.4834 304.213 53.2718L304.683 51.6998C304.7 51.6459 304.72 51.6002 304.745 51.5629C304.77 51.5256 304.811 51.4965 304.869 51.4758C304.926 51.4551 305.005 51.4385 305.104 51.4302C305.203 51.4219 305.335 51.4177 305.491 51.4177C305.648 51.4177 305.768 51.4219 305.863 51.4302C305.958 51.4385 306.036 51.4551 306.094 51.4716C306.151 51.4882 306.189 51.5131 306.209 51.5422C306.23 51.5712 306.242 51.6085 306.242 51.65C306.242 51.6998 306.234 51.762 306.217 51.8325C306.201 51.9072 306.172 52.0026 306.135 52.1229L305.694 53.4378C305.611 53.6825 305.524 53.894 305.438 54.0683C305.351 54.2425 305.261 54.3918 305.162 54.5079C305.063 54.6241 304.959 54.7278 304.844 54.8024C304.728 54.8812 304.601 54.9476 304.46 55.0015V55.0098C304.621 55.0803 304.766 55.155 304.889 55.2421C305.017 55.3292 305.133 55.4371 305.24 55.5657C305.347 55.6942 305.446 55.856 305.537 56.0468C305.628 56.2376 305.722 56.4699 305.821 56.7478L306.333 58.2328C306.358 58.3033 306.382 58.3614 306.395 58.4111C306.407 58.4609 306.424 58.5024 306.432 58.5397C306.44 58.577 306.448 58.6061 306.453 58.6351C306.453 58.6641 306.457 58.6849 306.457 58.7056Z" fill="#323638"/>
<path d="M313.687 58.7098C313.687 58.7471 313.675 58.7803 313.65 58.8093C313.626 58.8384 313.584 58.8632 313.527 58.8798C313.469 58.9006 313.39 58.913 313.296 58.9213C313.201 58.9296 313.077 58.9338 312.933 58.9338C312.788 58.9338 312.664 58.9296 312.57 58.9213C312.475 58.913 312.396 58.8964 312.339 58.8798C312.281 58.8632 312.244 58.8384 312.223 58.8093C312.203 58.7803 312.19 58.7471 312.19 58.7098V54.7817C312.19 54.6324 312.19 54.4872 312.194 54.342C312.198 54.1968 312.202 54.0724 312.211 53.9604H312.198C312.17 54.0143 312.132 54.0765 312.091 54.1471C312.05 54.2176 312.005 54.2922 311.955 54.371C311.906 54.4499 311.856 54.5287 311.802 54.6116C311.749 54.6946 311.695 54.7734 311.642 54.8522L309.064 58.7181C309.031 58.7595 309.002 58.7969 308.969 58.8301C308.936 58.8591 308.894 58.884 308.841 58.9006C308.787 58.9172 308.725 58.9296 308.651 58.9338C308.577 58.9379 308.482 58.9421 308.362 58.9421C308.214 58.9421 308.094 58.9379 308.003 58.9296C307.913 58.9213 307.838 58.9047 307.789 58.8881C307.739 58.8674 307.702 58.8425 307.682 58.8135C307.661 58.7844 307.653 58.7471 307.653 58.7056V51.6542C307.653 51.6168 307.665 51.5836 307.69 51.5546C307.715 51.5256 307.756 51.5007 307.818 51.4841C307.88 51.4675 307.954 51.4509 308.049 51.4426C308.144 51.4343 308.263 51.4302 308.412 51.4302C308.56 51.4302 308.684 51.4343 308.779 51.4426C308.874 51.4509 308.952 51.4675 309.01 51.4841C309.068 51.5007 309.109 51.5256 309.13 51.5546C309.15 51.5836 309.163 51.6168 309.163 51.6542V55.6071C309.163 55.7316 309.163 55.8602 309.154 55.997C309.154 56.1339 309.146 56.2708 309.138 56.3994H309.15C309.216 56.2832 309.299 56.1464 309.398 55.9846C309.497 55.8228 309.6 55.6652 309.707 55.5117L312.285 51.6459C312.31 51.6085 312.339 51.5753 312.372 51.5463C312.405 51.5173 312.442 51.4924 312.495 51.4758C312.549 51.4551 312.611 51.4426 312.689 51.4343C312.763 51.426 312.862 51.4219 312.982 51.4219C313.126 51.4219 313.246 51.426 313.333 51.4343C313.419 51.4426 313.494 51.4592 313.547 51.4758C313.601 51.4924 313.638 51.5173 313.659 51.5463C313.679 51.5753 313.692 51.6127 313.692 51.6542V58.7098H313.687Z" fill="#323638"/>
<path d="M321.116 58.7098C321.116 58.7471 321.104 58.7803 321.083 58.8093C321.063 58.8384 321.021 58.8633 320.964 58.8799C320.906 58.9006 320.827 58.913 320.733 58.9213C320.638 58.9296 320.514 58.9338 320.37 58.9338C320.225 58.9338 320.097 58.9296 320.002 58.9213C319.908 58.913 319.829 58.8965 319.776 58.8799C319.718 58.8591 319.677 58.8384 319.656 58.8093C319.635 58.7803 319.623 58.7471 319.623 58.7098V52.6953H318.031C317.924 53.5747 317.816 54.342 317.705 54.9974C317.594 55.6528 317.474 56.2169 317.35 56.6856C317.222 57.1543 317.086 57.5359 316.934 57.8387C316.781 58.1415 316.612 58.3738 316.418 58.548C316.224 58.7222 316.006 58.8425 315.766 58.9089C315.523 58.9753 315.247 59.0084 314.937 59.0084C314.879 59.0084 314.83 59.0001 314.789 58.9836C314.747 58.967 314.714 58.9379 314.69 58.8965C314.665 58.855 314.648 58.7928 314.636 58.7181C314.624 58.6393 314.62 58.5439 314.62 58.4236C314.62 58.2577 314.62 58.1249 314.632 58.0254C314.644 57.9258 314.653 57.8429 314.673 57.789C314.694 57.735 314.719 57.6977 314.747 57.677C314.78 57.6562 314.814 57.6479 314.859 57.6479C314.978 57.6479 315.09 57.623 315.201 57.5774C315.313 57.5318 315.416 57.4364 315.515 57.2912C315.618 57.1502 315.713 56.9511 315.808 56.6939C315.902 56.4367 315.993 56.0966 316.084 55.6777C316.175 55.2546 316.261 54.7444 316.352 54.1388C316.443 53.5332 316.534 52.8156 316.624 51.9819C316.649 51.7869 316.694 51.65 316.76 51.5712C316.831 51.4924 316.93 51.4551 317.066 51.4551H320.704C320.84 51.4551 320.947 51.4924 321.021 51.5712C321.096 51.65 321.133 51.7703 321.133 51.9321V58.7139L321.116 58.7098Z" fill="#323638"/>
<path d="M328.137 56.445C328.137 56.7976 328.083 57.1211 327.972 57.4156C327.864 57.7101 327.691 57.9673 327.46 58.183C327.225 58.4028 326.924 58.577 326.549 58.7056C326.173 58.8384 325.658 58.9006 325.01 58.9006H323.261C323.195 58.9006 323.137 58.8923 323.08 58.8757C323.026 58.8591 322.977 58.8301 322.935 58.7886C322.894 58.7471 322.861 58.6973 322.836 58.6393C322.812 58.5812 322.799 58.5065 322.799 58.4236V51.6417C322.799 51.6044 322.812 51.5712 322.836 51.5422C322.861 51.5131 322.902 51.4882 322.964 51.4716C323.026 51.4551 323.1 51.4385 323.199 51.4302C323.298 51.4219 323.418 51.4177 323.558 51.4177C323.707 51.4177 323.83 51.4219 323.925 51.4302C324.02 51.4385 324.098 51.4551 324.156 51.4716C324.214 51.4882 324.255 51.5131 324.276 51.5422C324.296 51.5712 324.309 51.6044 324.309 51.6417V54.2176H325.241C325.794 54.2176 326.235 54.2673 326.565 54.3627C326.895 54.4582 327.176 54.5992 327.407 54.79C327.638 54.9808 327.815 55.2131 327.947 55.4951C328.075 55.7772 328.141 56.0924 328.141 56.445H328.137ZM326.59 56.5694C326.59 56.3869 326.565 56.221 326.512 56.0758C326.458 55.9307 326.375 55.8062 326.264 55.7025C326.153 55.5988 326.012 55.52 325.839 55.462C325.666 55.4039 325.414 55.3748 325.076 55.3748H324.305V57.7433H325.101C325.451 57.7433 325.715 57.706 325.893 57.6355C326.07 57.5649 326.21 57.4737 326.309 57.3576C326.408 57.2414 326.479 57.117 326.524 56.9801C326.569 56.8432 326.59 56.7063 326.59 56.5694ZM330.55 58.7056C330.55 58.743 330.537 58.7761 330.513 58.8052C330.488 58.8342 330.447 58.8591 330.389 58.8757C330.331 58.8964 330.253 58.9089 330.158 58.9172C330.063 58.9255 329.939 58.9296 329.795 58.9296C329.65 58.9296 329.531 58.9255 329.432 58.9172C329.337 58.9089 329.259 58.8923 329.201 58.8757C329.143 58.8591 329.102 58.8342 329.077 58.8052C329.052 58.7761 329.04 58.743 329.04 58.7056V51.6417C329.04 51.6044 329.052 51.5712 329.077 51.5422C329.102 51.5131 329.143 51.4882 329.201 51.4716C329.259 51.4551 329.337 51.4385 329.436 51.4302C329.535 51.4219 329.655 51.4177 329.795 51.4177C329.935 51.4177 330.063 51.4219 330.158 51.4302C330.253 51.4385 330.331 51.4551 330.389 51.4716C330.447 51.4924 330.488 51.5131 330.513 51.5422C330.537 51.5712 330.55 51.6044 330.55 51.6417V58.7056Z" fill="#323638"/>
<path d="M337.504 58.3365C337.574 58.4733 337.62 58.577 337.64 58.66C337.661 58.7388 337.649 58.801 337.603 58.8425C337.558 58.884 337.475 58.913 337.356 58.9255C337.236 58.9379 337.067 58.9421 336.857 58.9421C336.675 58.9421 336.535 58.9421 336.432 58.9296C336.329 58.9213 336.246 58.9089 336.188 58.8923C336.131 58.8757 336.085 58.8508 336.06 58.8218C336.032 58.7927 336.011 58.7513 335.99 58.7056L334.596 56.0136L333.21 58.7056C333.19 58.7513 333.165 58.7886 333.136 58.8218C333.111 58.855 333.066 58.8757 333.008 58.8923C332.95 58.9089 332.868 58.9213 332.761 58.9296C332.653 58.9379 332.517 58.9421 332.344 58.9421C332.146 58.9421 331.993 58.9379 331.882 58.9255C331.775 58.913 331.701 58.8881 331.663 58.8425C331.626 58.801 331.618 58.7388 331.643 58.66C331.663 58.577 331.713 58.4733 331.787 58.3365L333.565 55.0803L331.915 52.0233C331.845 51.8864 331.8 51.7744 331.775 51.6915C331.75 51.6085 331.758 51.5463 331.804 51.5048C331.849 51.4634 331.927 51.4385 332.047 51.4302C332.167 51.4219 332.336 51.4177 332.55 51.4177C332.732 51.4177 332.872 51.4177 332.975 51.4302C333.078 51.4385 333.165 51.4509 333.223 51.4675C333.284 51.4841 333.326 51.509 333.35 51.538C333.375 51.5671 333.4 51.6085 333.421 51.6542L334.72 54.118L335.986 51.6542C336.007 51.6085 336.032 51.5712 336.056 51.538C336.081 51.5048 336.122 51.4841 336.176 51.4675C336.23 51.4509 336.308 51.4385 336.403 51.4302C336.502 51.4219 336.634 51.4177 336.807 51.4177C336.997 51.4177 337.149 51.4219 337.261 51.4302C337.372 51.4385 337.446 51.4675 337.492 51.509C337.533 51.5505 337.545 51.6127 337.525 51.6915C337.504 51.7744 337.459 51.8823 337.397 52.0192L335.747 55.0596L337.504 58.3323V58.3365Z" fill="#323638"/>
<path d="M143.461 23.7262L138.697 38.7956C138.35 38.8412 137.929 38.8578 137.434 38.8495C136.94 38.837 136.556 38.8329 136.28 38.8329C137.084 36.4271 137.839 34.1333 138.54 31.9556C139.241 29.7821 139.852 27.8575 140.371 26.19C140.891 24.5226 141.299 23.1828 141.596 22.1624C141.893 21.1462 142.046 20.5986 142.046 20.5323C142.116 20.2087 142.104 19.8188 142.013 19.3667C141.922 18.9146 141.807 18.4583 141.667 17.9937C141.53 17.5292 141.378 17.0895 141.217 16.6747C141.056 16.2599 140.941 15.9239 140.87 15.6667H147.087L154.474 38.8288H148.398L143.461 23.722V23.7262Z" fill="#447C2A"/>
<path d="M169.014 15.6709L168.255 17.9647L161.969 17.9979V24.7341L168.012 24.7673L167.183 26.6753H161.969V36.5018H168.531L169.22 38.8287H156.169L156.202 15.6667H169.014V15.6709Z" fill="#447C2A"/>
<path d="M179.454 38.8329C178.765 38.8329 178.085 38.667 177.47 38.3476C176.48 37.8623 175.581 37.2235 174.776 36.4396C173.972 35.6514 173.287 34.7721 172.722 33.8015C172.157 32.8309 171.72 31.7939 171.411 30.6947C171.101 29.5955 170.944 28.488 170.944 27.3805C170.944 25.6923 171.25 24.1327 171.86 22.7099C172.471 21.2872 173.304 20.0553 174.364 19.01C175.424 17.9689 176.67 17.1517 178.109 16.5627C179.549 15.9737 181.083 15.675 182.721 15.675H188.764L187.902 18.0352C187.555 18.0352 187.101 18.0311 186.536 18.0186C185.971 18.0062 185.39 18.002 184.791 18.002C184.193 18.002 183.69 18.0103 183.22 18.0186C182.75 18.0311 182.432 18.0725 182.271 18.1389C181.327 18.4873 180.551 18.9975 179.941 19.6654C179.33 20.3373 178.835 21.0881 178.456 21.9218C178.076 22.7556 177.812 23.6349 177.66 24.5599C177.507 25.4849 177.437 26.3767 177.437 27.2353C177.437 29.9895 177.887 32.1713 178.782 33.7807C179.681 35.3901 180.997 36.3068 182.746 36.4893C182.952 36.5059 183.018 36.5059 183.55 36.5059H185.344C186.103 36.5059 186.965 36.4935 187.935 36.4727L188.9 38.8329H179.454Z" fill="#447C2A"/>
<path d="M200.882 38.8329V25.5306L199.088 26.8496C198.927 26.8289 197.347 26.5509 196.811 27.2312C196.663 27.4179 196.621 27.5589 196.605 27.9944V38.8288H190.735V15.7415H196.745V24.6636H200.957V15.7415H206.793V38.8329H200.886H200.882Z" fill="#447C2A"/>
<path d="M220.393 38.8329C220.186 38.1858 219.939 37.4309 219.65 36.5764C219.361 35.722 219.081 34.8882 218.805 34.0752C218.644 33.6107 218.483 33.142 218.322 32.6691C218.161 32.1962 218 31.7026 217.839 31.1924C217.678 31.516 217.448 31.8188 217.151 32.0967C216.849 32.3746 216.441 32.5488 215.773 32.5488C215.352 32.5612 214.284 32.5488 214.284 32.5488H213.611C213.368 32.5488 213.112 32.5488 212.848 32.5612C212.687 32.9553 212.555 33.2996 212.419 33.6936C212.283 34.0877 212.155 34.4817 212.04 34.8758C211.809 35.5477 211.574 36.2363 211.33 36.9414C211.087 37.6466 210.877 38.2688 210.691 38.7997C210.345 38.8453 209.924 38.8619 209.429 38.8536C208.934 38.8412 208.55 38.837 208.274 38.837L210.551 32.4492L209.619 32.3456C209.734 32.2294 209.85 32.1091 209.965 31.9805C210.081 31.8519 210.196 31.7317 210.312 31.6155C210.497 31.4081 210.67 31.1883 210.831 30.956C210.992 30.7237 211.108 30.5039 211.178 30.2965C211.409 29.4876 211.685 28.5378 212.007 27.451C212.329 26.3642 212.638 25.3148 212.939 24.3069C213.236 23.2989 213.484 22.4362 213.682 21.7186C213.875 21.001 213.974 20.6069 213.974 20.5364C214.045 20.2129 214.036 19.823 213.958 19.3708C213.875 18.9187 213.768 18.4625 213.632 17.9979C213.496 17.5333 213.352 17.0936 213.199 16.6788C213.05 16.2641 212.939 15.9281 212.869 15.6709H219.085L226.473 38.8329H220.397H220.393ZM215.455 23.7262C215.34 23.8879 215.166 24.3152 214.935 25.012C214.705 25.7047 214.474 26.4596 214.247 27.2685C214.111 27.7331 213.97 28.2225 213.834 28.7452C213.698 29.2678 213.545 29.8153 213.385 30.396H217.596L215.455 23.7303V23.7262Z" fill="#447C2A"/>
<path d="M381.92 38.8039C381.714 38.1568 381.466 37.4018 381.178 36.5474C380.889 35.6929 380.608 34.8592 380.332 34.0462C380.171 33.5816 380.01 33.1129 379.849 32.64C379.689 32.1672 379.528 31.6736 379.367 31.1634C379.206 31.4869 378.975 31.7897 378.678 32.0676C378.377 32.3455 377.969 32.5197 377.3 32.5197C376.88 32.5322 375.811 32.5197 375.811 32.5197H375.139C374.896 32.5197 374.64 32.5197 374.376 32.5322C374.215 32.9262 374.083 33.2705 373.947 33.6646C373.811 34.0586 373.683 34.4527 373.567 34.8467C373.336 35.5187 373.101 36.2072 372.858 36.9124C372.614 37.6175 372.404 38.2397 372.219 38.7707C371.872 38.8163 371.451 38.8329 370.956 38.8246C370.461 38.8121 370.078 38.808 369.801 38.808L372.078 32.4202L371.146 32.3165C371.262 32.2004 371.377 32.0801 371.493 31.9515C371.608 31.8229 371.724 31.7026 371.839 31.5865C372.025 31.3791 372.198 31.1592 372.359 30.9269C372.52 30.6947 372.635 30.4748 372.705 30.2674C372.936 29.4586 373.213 28.5087 373.534 27.4219C373.856 26.3352 374.165 25.2858 374.467 24.2778C374.764 23.2699 375.011 22.4071 375.209 21.6895C375.403 20.9719 375.502 20.5779 375.502 20.5074C375.572 20.1838 375.564 19.7939 375.485 19.3418C375.403 18.8897 375.296 18.4334 375.16 17.9688C375.023 17.5043 374.879 17.0646 374.726 16.6498C374.578 16.235 374.467 15.899 374.396 15.6418H380.612L388 38.8039H381.924H381.92ZM376.983 23.6971C376.867 23.8589 376.694 24.2861 376.463 24.983C376.232 25.6757 376.001 26.4306 375.774 27.2394C375.638 27.704 375.498 28.1935 375.362 28.7161C375.226 29.2387 375.073 29.7863 374.912 30.367H379.123L376.983 23.7013V23.6971Z" fill="#447C2A"/>
<path d="M304.403 38.837C304.196 38.19 303.949 37.4351 303.66 36.5806C303.371 35.7261 303.091 34.8924 302.815 34.0794C302.654 33.6148 302.493 33.1461 302.332 32.6732C302.171 32.2004 302.01 31.7068 301.849 31.1966C301.688 31.5201 301.458 31.8229 301.161 32.1008C300.859 32.3787 300.451 32.5529 299.783 32.5529C299.362 32.5654 298.294 32.5529 298.294 32.5529H297.621C297.378 32.5529 297.122 32.5529 296.858 32.5654C296.697 32.9594 296.566 33.3037 296.429 33.6978C296.293 34.0918 296.165 34.4859 296.05 34.8799C295.819 35.5519 295.584 36.2404 295.34 36.9456C295.097 37.6507 294.887 38.2729 294.701 38.8039C294.355 38.8495 293.934 38.8661 293.439 38.8578C292.944 38.8453 292.56 38.8412 292.284 38.8412L294.561 32.4534L293.629 32.3497C293.744 32.2336 293.86 32.1133 293.975 31.9847C294.091 31.8561 294.206 31.7358 294.322 31.6197C294.507 31.4123 294.68 31.1924 294.841 30.9601C295.002 30.7279 295.118 30.508 295.188 30.3006C295.419 29.4918 295.695 28.5419 296.017 27.4552C296.339 26.3684 296.648 25.319 296.949 24.311C297.246 23.3031 297.494 22.4403 297.692 21.7227C297.885 21.0051 297.984 20.6111 297.984 20.5406C298.055 20.217 298.046 19.8271 297.968 19.375C297.885 18.9229 297.778 18.4666 297.642 18.002C297.506 17.5375 297.362 17.0978 297.209 16.683C297.06 16.2682 296.949 15.9322 296.879 15.675H303.095L310.483 38.837H304.407H304.403ZM299.465 23.7303C299.35 23.8921 299.176 24.3193 298.946 25.0162C298.715 25.7089 298.484 26.4638 298.257 27.2726C298.121 27.7372 297.98 28.2267 297.844 28.7493C297.708 29.2719 297.555 29.8195 297.395 30.4002H301.606L299.465 23.7345V23.7303Z" fill="#447C2A"/>
<path d="M227.747 38.8329C228.069 38.4389 228.457 37.9577 228.906 37.3936C229.356 36.8253 229.83 36.2114 230.338 35.5519C230.845 34.8924 231.34 34.2287 231.822 33.5567C232.305 32.8848 234.961 28.7369 235.069 28.5585C235.329 28.123 235.609 27.9902 234.277 27.2395C233.563 26.891 232.862 26.5551 232.169 26.2315C231.48 25.908 230.861 25.5264 230.321 25.0867C229.781 24.647 229.343 24.1202 229.009 23.5063C228.675 22.8924 228.51 22.1251 228.51 21.1959C228.51 20.1755 228.675 19.3169 229.009 18.6076C229.343 17.9025 229.814 17.3342 230.424 16.907C231.035 16.4797 231.761 16.1645 232.598 15.9696C233.439 15.7746 234.376 15.675 235.411 15.675H245.08V38.7997H239.243V31.993C238.831 32.5737 238.496 33.0797 238.241 33.5194C237.985 33.9591 237.717 34.4154 237.428 34.8924C237.139 35.3652 236.785 35.9128 236.36 36.5225C235.935 37.1364 235.353 37.9079 234.615 38.8329H227.743H227.747ZM233.757 22.2371C233.757 22.8841 233.831 23.4566 233.98 23.9543C234.128 24.4521 234.363 24.9083 234.689 25.3273C235.011 25.7421 235.432 26.1568 235.951 26.5592C236.471 26.9657 237.218 27.4469 237.931 27.8865C238.983 28.517 239.041 28.8986 239.214 29.8402V17.2015H238.039C237.395 17.2015 236.805 17.3508 236.277 17.6536C235.749 17.9564 235.3 18.3463 234.933 18.8358C234.565 19.3211 234.277 19.8645 234.07 20.4659C233.864 21.0673 233.761 21.6605 233.761 22.2371H233.757Z" fill="#447C2A"/>
<path d="M261.17 38.8329L262.965 34.2495L255.404 15.7414H262.136L266.384 25.601L270.319 15.7041H272.736L263.621 38.8288H261.17V38.8329Z" fill="#447C2A"/>
<path d="M281.906 38.8329C281.217 38.8329 280.536 38.667 279.922 38.3476C278.932 37.8623 278.033 37.2235 277.228 36.4396C276.424 35.6514 275.739 34.7721 275.174 33.8015C274.609 32.8309 274.172 31.7939 273.862 30.6947C273.553 29.5955 273.396 28.488 273.396 27.3805C273.396 25.6923 273.702 24.1327 274.312 22.7099C274.923 21.2872 275.756 20.0553 276.816 19.01C277.876 17.9689 279.126 17.1517 280.561 16.5627C282.001 15.9737 283.535 15.675 285.173 15.675H291.216L290.353 18.0352C290.007 18.0352 289.553 18.0311 288.988 18.0186C288.423 18.0062 287.841 18.002 287.243 18.002C286.645 18.002 286.146 18.0103 285.672 18.0186C285.197 18.0311 284.884 18.0725 284.723 18.1389C283.779 18.4873 283.003 18.9975 282.393 19.6654C281.782 20.3373 281.287 21.0881 280.908 21.9218C280.528 22.7556 280.264 23.6349 280.116 24.5599C279.963 25.4849 279.889 26.3767 279.889 27.2353C279.889 29.9895 280.338 32.1713 281.238 33.7807C282.137 35.3901 283.461 36.2861 285.21 36.4727C285.643 36.5225 285.474 36.5059 286.006 36.5059H287.8C288.559 36.5059 289.425 36.4935 290.391 36.4727L291.356 38.8329H281.91H281.906Z" fill="#447C2A"/>
<path d="M329.333 38.8329H313.795V42.4789L311.275 43.0679V36.4686H313.209C313.923 34.2909 314.574 32.2501 315.16 30.3379C315.746 28.4299 316.249 26.7583 316.662 25.319C317.074 23.8838 317.392 22.7431 317.61 21.8969C317.829 21.0507 317.936 20.5945 317.936 20.524C318.006 20.2004 317.994 19.8105 317.903 19.3584C317.812 18.9063 317.697 18.45 317.557 17.9854C317.42 17.5209 317.268 17.0812 317.107 16.6664C316.946 16.2516 316.831 15.9156 316.761 15.6584H322.977L329.535 36.4561H331.849V42.4623L329.329 43.0513V38.8163L329.333 38.8329ZM319.355 23.7262L315.556 36.4686H323.43L319.355 23.7262Z" fill="#447C2A"/>
<path d="M339.311 15.6709V21.4365C339.311 22.3615 339.571 23.1371 340.09 23.7635C340.606 24.3898 341.258 24.9456 342.041 25.4309C342.825 25.9162 343.671 26.3725 344.578 26.8039C345.486 27.2311 346.335 27.7289 347.115 28.2972C347.899 28.8654 348.546 29.5374 349.066 30.3089C349.586 31.0846 349.841 32.051 349.841 33.2083C349.841 33.789 349.742 34.407 349.549 35.0666C349.355 35.7261 349.066 36.3358 348.687 36.8875C348.307 37.4433 347.829 37.9079 347.255 38.2771C346.678 38.6462 346.014 38.8329 345.255 38.8329H333.548V15.6377L339.315 15.6709H339.311ZM344.731 32.4409C344.756 31.3749 344.57 30.5329 344.178 29.9065C343.786 29.2802 343.308 28.7493 342.747 28.3096C342.182 27.8699 341.596 27.4593 340.985 27.0777C340.375 26.6961 339.851 26.2025 339.414 25.601V37.1281H340C340.643 37.1281 341.249 37.0202 341.815 36.8004C342.38 36.5806 342.879 36.2736 343.316 35.8796C343.753 35.4855 344.1 35.0002 344.351 34.4195C344.603 33.8429 344.731 33.1834 344.731 32.4409Z" fill="#447C2A"/>
<path d="M357.959 17.9647V21.4365C357.959 22.3615 358.219 23.1371 358.739 23.7635C359.254 24.3898 359.906 24.9456 360.69 25.4309C361.473 25.9162 362.319 26.3725 363.226 26.8039C364.134 27.2311 364.984 27.7289 365.763 28.2972C366.547 28.8654 367.194 29.5374 367.714 30.3089C368.234 31.0846 368.49 32.051 368.49 33.2083C368.49 33.789 368.391 34.407 368.197 35.0666C368.003 35.7261 367.714 36.3358 367.335 36.8875C366.955 37.4433 366.477 37.9079 365.903 38.2771C365.326 38.6462 364.662 38.8329 363.903 38.8329H352.197V15.6377H366.596L365.837 17.9647H357.963H357.959ZM363.379 32.4451C363.404 31.3791 363.218 30.537 362.826 29.9107C362.434 29.2844 361.956 28.7534 361.395 28.3137C360.83 27.8741 360.244 27.4634 359.634 27.0818C359.023 26.7002 358.499 26.2066 358.062 25.6052V37.1322H358.648C359.291 37.1322 359.898 37.0244 360.463 36.8045C361.028 36.5847 361.527 36.2778 361.964 35.8837C362.401 35.4897 362.748 35.0043 363 34.4236C363.251 33.8471 363.379 33.1876 363.379 32.4451Z" fill="#447C2A"/>
<path d="M0.0990346 49.8291C-0.202076 50.2895 0.193905 50.4596 0.981743 50.4306C2.64404 50.3932 6.20375 49.4102 8.45177 48.5059C8.03516 48.9 5.00755 51.65 1.50147 52.2847C-1.34877 52.8032 0.750754 54.7651 0.750754 54.7651C1.42722 55.7648 2.62754 56.0302 3.76599 56.0178C5.01993 56.0178 6.19962 55.6569 6.52136 55.5532C5.01993 57.6023 4.52495 59.473 5.78302 59.3693C6.41824 59.3527 7.54431 58.7845 9.28085 57.3949C8.45589 59.3527 9.05399 60.5847 10.1099 60.651C10.8937 60.7381 11.9455 60.1616 12.8571 58.743C12.9024 60.0911 13.583 60.9912 14.5111 61.0119C15.0515 61.0492 15.6867 60.7796 16.326 60.1118C17.0561 61.1446 17.6913 61.4889 18.2193 61.4474C18.2977 61.4474 18.3719 61.4391 18.4462 61.4225C18.1203 63.4467 17.6996 65.0022 17.0974 66.2549C16.8581 65.5995 16.4869 64.9068 15.897 64.2929C15.897 64.2929 16.3343 65.865 16.5116 67.2753C16.491 67.3084 16.4704 67.3416 16.4498 67.3707C16.2105 66.4706 15.5671 65.2386 13.8759 64.2722C13.8759 64.2722 15.9177 65.8111 15.6454 68.4491L15.5588 68.4699C15.2989 68.0136 14.2801 66.5203 12.0775 66.4498C12.0775 66.4498 14.8452 67.6901 14.4369 69.8262C14.4369 69.8262 16.9076 70.183 19.3 69.4654C20.5787 69.2248 21.7749 68.9344 22.2781 68.8141C23.8002 68.4491 30.9113 70.3489 28.1477 68.8639C25.6151 67.5034 25.0954 63.6666 24.8355 58.9794C26.5184 60.4395 28.2715 61.182 29.3109 61.128C30.4576 61.1115 30.8 60.1906 29.3934 58.2909C30.4782 58.9794 31.9714 60.0205 32.9902 60.0496C33.6172 60.0952 34.0751 59.78 34.1699 58.8052C35.7456 59.921 36.8469 60.5017 37.4038 60.4519C38.4102 60.4519 37.8905 58.6932 35.4775 54.6822C37.7998 56.2376 39.7673 56.6815 41.2605 56.5902C43.8302 56.4616 45.0141 54.7568 44.1808 54.3835C41.7843 53.8236 38.3071 52.2515 36.2653 49.6632C37.2924 50.5882 38.4515 51.1772 39.1362 51.1813C40.2004 51.2518 40.254 50.0531 37.3089 46.8011C39.1156 48.452 40.8026 48.9871 42.0813 48.9539C42.1803 48.9539 42.2752 48.9414 42.3701 48.9373C42.3948 48.9373 42.4196 48.9373 42.4443 48.9332C43.7106 48.8087 44.5108 47.8049 44.4861 47.8215C44.8284 47.2284 44.2551 46.9048 43.7436 46.7099C40.8233 45.312 38.336 42.7942 36.4592 40.405L36.5458 40.4258C35.4734 39.0569 34.5948 37.7296 33.9513 36.6719C35.296 37.6757 36.3602 38.0946 36.9501 38.1195C37.6801 38.1859 37.7791 37.7006 36.9336 36.9788C34.8217 35.2699 33.1016 31.8644 32.0498 29.3632C32.4788 29.6495 32.8335 29.8029 33.0727 29.7822C33.7451 29.8195 33.6213 28.7286 31.7817 25.85C33.1635 27.1109 34.3597 27.7124 34.9908 27.6585C35.5229 27.6543 35.7085 27.2437 35.3579 26.4307C35.1228 25.8831 34.7309 25.4186 34.2978 25.0121C29.7193 20.7148 29.1624 15.7539 29.1335 15.4553C29.81 16.2558 30.602 16.8407 30.7298 16.8821C31.0598 17.0066 30.9278 16.3844 29.942 14.6589C31.3527 15.7664 32.5118 16.2475 32.9242 16.1894C33.3326 16.1811 33.2295 15.7912 32.3055 15.0654C31.6538 14.58 30.3834 13.1656 30.3957 13.2112C27.8177 10.0049 25.4418 4.72873 24.4148 2.2939C24.4354 2.2939 24.4601 2.28146 24.4808 2.28146C24.1425 1.48091 23.9487 0.987305 23.9487 0.987305C23.9404 1.02464 23.928 1.06197 23.9239 1.0993C23.895 1.02878 23.8827 0.987305 23.8827 0.987305C23.8125 1.32743 21.5398 11.6267 16.425 15.6087C15.2041 16.5586 15.5011 17.0978 16.3384 17.0439C16.953 17.0315 17.9058 16.6789 18.7968 15.9364C18.3431 16.9485 18.4998 16.9236 18.1946 17.8942C16.7715 21.449 14.5854 25.738 13.1169 26.7459C12.1888 27.3805 12.1558 27.8327 12.7127 27.8493C12.7333 27.8493 12.7622 27.8493 12.7869 27.8493C12.8199 27.8493 12.8488 27.8493 12.8859 27.8493C13.3603 27.8244 14.1729 27.5299 15.1876 26.8621C14.5936 28.7742 12.9643 33.1088 9.70984 35.6598C7.57318 37.3314 8.22078 38.0075 9.60259 37.9453C9.76758 37.9453 9.94082 37.9246 10.1264 37.8997C9.15711 40.1396 6.73997 44.0469 1.41072 45.2622C-0.416566 45.7351 0.62701 47.3155 3.02352 47.1786C3.5185 47.1578 4.07535 47.0541 4.67757 46.8592C3.90623 47.1993 0.93637 48.5723 0.103159 49.8498L0.0990346 49.8291Z" fill="#447C2A"/>
<path d="M122.606 48.8542C122.907 49.3147 122.511 49.4847 121.723 49.4557C120.061 49.4184 116.501 48.4353 114.253 47.5311C114.67 47.9251 117.697 50.6752 121.203 51.3098C124.054 51.8283 121.954 53.7903 121.954 53.7903C121.278 54.7899 120.077 55.0554 118.939 55.0429C117.685 55.0429 116.505 54.6821 116.183 54.5784C117.685 56.6275 118.18 58.4982 116.922 58.3945C116.287 58.3779 115.16 57.8096 113.424 56.4201C114.249 58.3779 113.651 59.6098 112.595 59.6762C111.811 59.7633 110.759 59.1867 109.848 57.7681C109.802 59.1162 109.122 60.0163 108.194 60.0371C107.653 60.0744 107.018 59.8048 106.379 59.137C105.649 60.1698 105.013 60.5141 104.485 60.4726C104.407 60.4726 104.333 60.4643 104.259 60.4477C104.584 62.4719 105.005 64.0274 105.607 65.28C105.847 64.6247 106.218 63.9319 106.808 63.3181C106.808 63.3181 106.371 64.8901 106.193 66.3004C106.214 66.3336 106.234 66.3668 106.255 66.3958C106.494 65.4957 107.138 64.2638 108.829 63.2973C108.829 63.2973 106.787 64.8362 107.059 67.4743L107.146 67.495C107.406 67.0387 108.425 65.5455 110.627 65.475C110.627 65.475 107.86 66.7152 108.268 68.8514C108.268 68.8514 105.797 69.2081 103.405 68.4905C102.126 68.2499 100.93 67.9596 100.427 67.8393C98.9046 67.4743 91.7934 69.374 94.5571 67.8891C97.0897 66.5285 97.6094 62.6917 97.8693 58.0046C96.1864 59.4646 94.4333 60.2071 93.3939 60.1532C92.2472 60.1366 91.9048 59.2158 93.3114 57.316C92.2265 58.0046 90.7334 59.0457 89.7145 59.0747C89.0876 59.1204 88.6297 58.8051 88.5348 57.8304C86.9592 58.9461 85.8578 59.5269 85.301 59.4771C84.2945 59.4771 84.8143 57.7184 87.2273 53.7073C84.905 55.2628 82.9375 55.7066 81.4443 55.6154C78.8745 55.4868 77.6907 53.782 78.5239 53.4087C80.9204 52.8487 84.3977 51.2766 86.4394 48.6883C85.4124 49.6133 84.2533 50.2023 83.5686 50.2065C82.5044 50.277 82.4508 49.0782 85.3959 45.8263C83.5892 47.4771 81.9022 48.0122 80.6235 47.979C80.5245 47.979 80.4296 47.9666 80.3347 47.9624C80.31 47.9624 80.2852 47.9624 80.2605 47.9583C78.9942 47.8339 78.194 46.8301 78.2187 46.8467C77.8763 46.2535 78.4497 45.93 78.9612 45.735C81.8815 44.3372 84.3688 41.8194 86.2456 39.4302L86.159 39.4509C87.2314 38.0821 88.11 36.7548 88.7535 35.697C87.4088 36.7008 86.3446 37.1198 85.7547 37.1447C85.0246 37.211 84.9256 36.7257 85.7712 36.004C87.8831 34.295 89.6032 30.8896 90.655 28.3884C90.226 28.6746 89.8713 28.8281 89.632 28.8073C88.9597 28.8447 89.0834 27.7538 90.9231 24.8751C89.5413 26.1361 88.3451 26.7375 87.714 26.6836C87.1819 26.6795 86.9963 26.2688 87.3469 25.4558C87.582 24.9083 87.9739 24.4437 88.407 24.0372C92.9855 19.74 93.5424 14.7791 93.5712 14.4804C92.8948 15.281 92.1028 15.8658 91.9749 15.9073C91.6449 16.0317 91.7769 15.4095 92.7628 13.684C91.3521 14.7915 90.193 15.2727 89.7805 15.2146C89.3722 15.2063 89.4753 14.8164 90.3993 14.0905C91.051 13.6052 92.3214 12.1908 92.309 12.2364C94.887 9.03004 97.2629 3.75388 98.29 1.31905C98.2694 1.31905 98.2446 1.3066 98.224 1.3066C98.5623 0.506054 98.7561 0.0124512 98.7561 0.0124512C98.7644 0.0497825 98.7767 0.0871138 98.7809 0.124445C98.8097 0.0539304 98.8221 0.0124512 98.8221 0.0124512C98.8922 0.352581 101.165 10.6519 106.28 14.6339C107.501 15.5838 107.204 16.123 106.366 16.0691C105.752 16.0566 104.799 15.704 103.908 14.9616C104.362 15.9737 104.205 15.9488 104.51 16.9194C105.933 20.4742 108.119 24.7631 109.588 25.7711C110.516 26.4057 110.549 26.8578 109.992 26.8744C109.971 26.8744 109.943 26.8744 109.918 26.8744C109.885 26.8744 109.856 26.8744 109.819 26.8744C109.344 26.8495 108.532 26.555 107.517 25.8872C108.111 27.7994 109.74 32.134 112.995 34.6849C115.132 36.3566 114.484 37.0327 113.102 36.9704C112.937 36.9704 112.764 36.9497 112.578 36.9248C113.548 39.1647 115.965 43.072 121.294 44.2874C123.121 44.7602 122.078 46.3406 119.681 46.2037C119.186 46.183 118.629 46.0793 118.027 45.8843C118.799 46.2245 121.768 47.5974 122.602 48.875L122.606 48.8542Z" fill="#447C2A"/>
<path d="M123.872 71L0 68.9426L123.872 66.8853V71Z" fill="#447C2A"/>
<path d="M95.9101 41.5745L60.676 19.5325L10.5389 56.9841H15.0061L60.6801 22.9587L94.6644 44.2292L95.9101 41.5745Z" fill="#447C2A"/>
<path d="M60.5398 38.2563H56.7573V45.0009H60.5398V38.2563Z" fill="#447C2A"/>
<path d="M60.5398 46.7512H56.7573V53.4957H60.5398V46.7512Z" fill="#447C2A"/>
<path d="M66.0588 38.2563H62.2764V45.0009H66.0588V38.2563Z" fill="#447C2A"/>
<path d="M66.0588 46.7512H62.2764V53.4957H66.0588V46.7512Z" fill="#447C2A"/>
<path d="M95.6295 47.2946L95.0892 48.1656L60.713 26.5964L20.0424 56.9841H18.3636L60.6512 25.3479L95.6295 47.2946Z" fill="#447C2A"/>
</g>
<defs>
<clipPath id="clip0_1_1179">
<rect width="388" height="71" fill="white"/>
</clipPath>
</defs>
</svg>
