<svg width="204" height="204" viewBox="0 0 204 204" fill="none" xmlns="http://www.w3.org/2000/svg">
<circle cx="102" cy="102" r="102" fill="white"/>
<g clip-path="url(#clip0_1_1132)">
<path d="M31.9736 112.782C31.6317 113.301 32.082 113.486 32.9724 113.456C34.8547 113.415 38.8868 112.31 41.4361 111.296C40.9621 111.737 37.536 114.821 33.5648 115.532C30.3384 116.111 32.7117 118.315 32.7117 118.315C33.4768 119.437 34.8378 119.734 36.1243 119.717C37.5462 119.714 38.8801 119.316 39.2457 119.198C37.5462 121.493 36.9842 123.593 38.4129 123.475C39.1306 123.458 40.4103 122.821 42.3773 121.261C41.4395 123.458 42.12 124.836 43.3185 124.91C44.2055 125.008 45.4005 124.361 46.4331 122.77C46.4839 124.283 47.2524 125.294 48.3053 125.315C48.9181 125.358 49.6358 125.052 50.3637 124.304C51.1931 125.459 51.9075 125.847 52.5101 125.803C52.5981 125.803 52.6861 125.796 52.7674 125.776C52.3984 128.048 51.9244 129.79 51.2405 131.195C50.9697 130.46 50.5499 129.682 49.8829 128.995C49.8829 128.995 50.3772 130.757 50.5804 132.341C50.5567 132.378 50.533 132.415 50.5093 132.449C50.2384 131.441 49.5071 130.056 47.591 128.974C47.591 128.974 49.9066 130.7 49.5952 133.655L49.497 133.679C49.2025 133.167 48.048 131.495 45.5529 131.414C45.5529 131.414 48.6912 132.803 48.2274 135.202C48.2274 135.202 51.0272 135.603 53.739 134.798C55.188 134.528 56.5422 134.201 57.1144 134.066C58.841 133.659 66.8951 135.785 63.7601 134.12C60.8926 132.594 60.3035 128.294 60.009 123.04C61.915 124.678 63.9023 125.51 65.0804 125.453C66.3771 125.433 66.7698 124.401 65.1752 122.268C66.4042 123.043 68.0969 124.206 69.248 124.24C69.9589 124.29 70.4769 123.936 70.5853 122.844C72.3694 124.095 73.6187 124.748 74.2484 124.688C75.3859 124.688 74.8002 122.713 72.0647 118.217C74.6953 119.96 76.9263 120.459 78.6123 120.354C81.5238 120.212 82.8611 118.298 81.9233 117.881C79.2115 117.25 75.2708 115.491 72.9585 112.59C74.1231 113.628 75.4367 114.285 76.212 114.292C77.4172 114.369 77.4781 113.028 74.14 109.378C76.1849 111.228 78.0977 111.828 79.5467 111.794C79.6618 111.794 79.7667 111.781 79.8751 111.774C79.9022 111.774 79.9326 111.771 79.9597 111.767C81.3952 111.629 82.2991 110.504 82.272 110.521C82.6613 109.857 82.0113 109.493 81.4324 109.277C78.1282 107.707 75.308 104.889 73.1819 102.207L73.2801 102.23C72.0647 100.697 71.0694 99.2077 70.3415 98.0214C71.865 99.147 73.0702 99.6188 73.7372 99.6424C74.5666 99.7165 74.6749 99.174 73.7169 98.3618C71.3267 96.4477 69.3766 92.6262 68.1849 89.8257C68.6691 90.1459 69.0753 90.3177 69.3428 90.2975C70.1045 90.3413 69.9623 89.1147 67.8836 85.8863C69.4511 87.2983 70.8053 87.9723 71.5197 87.915C72.1189 87.9082 72.3322 87.4466 71.9327 86.5367C71.6652 85.9233 71.2251 85.4044 70.7342 84.9461C65.551 80.127 64.9179 74.5633 64.8841 74.2296C65.6492 75.1294 66.5464 75.7832 66.6953 75.827C67.0677 75.9652 66.9188 75.2676 65.8049 73.3332C67.4029 74.5734 68.7131 75.1159 69.1803 75.0485C69.6407 75.0418 69.5256 74.6037 68.4795 73.7882C67.7381 73.2456 66.3026 71.655 66.3162 71.7089C63.3979 68.1166 60.703 62.1956 59.5418 59.4659C59.5655 59.4626 59.5926 59.4491 59.6163 59.4524C59.2168 58.5527 58.9967 58 58.9967 58C58.9899 58.0404 58.9764 58.0842 58.9662 58.1247C58.9358 58.0438 58.9154 58 58.9154 58C58.8342 58.3808 56.2612 69.9296 50.4686 74.3948C49.0873 75.4597 49.4191 76.0663 50.3705 76.0056C51.0679 75.9888 52.1478 75.5945 53.1533 74.7621C52.6387 75.8978 52.8182 75.8674 52.4695 76.9593C50.858 80.9459 48.3832 85.7582 46.7175 86.8838C45.6646 87.5982 45.6308 88.1003 46.2605 88.1205C46.2842 88.1205 46.318 88.1205 46.3417 88.1205C46.3789 88.1205 46.4128 88.1205 46.4568 88.1205C46.9951 88.0902 47.9126 87.7633 49.0636 87.0118C48.3933 89.1585 46.5448 94.0146 42.858 96.8757C40.4374 98.7493 41.1687 99.5076 42.7395 99.4402C42.9257 99.4368 43.1221 99.4166 43.332 99.3896C42.2317 101.9 39.4962 106.285 33.4565 107.643C31.388 108.172 32.5661 109.944 35.2813 109.789C35.8433 109.766 36.473 109.651 37.1535 109.432C36.28 109.813 32.9148 111.35 31.9736 112.785V112.782Z" fill="#447C2A"/>
<path d="M172.066 112.782C172.408 113.301 171.957 113.486 171.067 113.456C169.185 113.415 165.152 112.31 162.603 111.296C163.077 111.737 166.503 114.821 170.474 115.532C173.701 116.111 171.328 118.315 171.328 118.315C170.562 119.437 169.201 119.734 167.915 119.717C166.493 119.714 165.159 119.316 164.794 119.198C166.493 121.493 167.055 123.593 165.626 123.475C164.909 123.458 163.629 122.821 161.662 121.261C162.6 123.458 161.919 124.836 160.721 124.91C159.834 125.008 158.639 124.361 157.606 122.77C157.555 124.283 156.787 125.294 155.734 125.315C155.121 125.358 154.403 125.052 153.676 124.304C152.846 125.459 152.132 125.847 151.529 125.803C151.441 125.803 151.353 125.796 151.272 125.776C151.641 128.048 152.115 129.79 152.799 131.195C153.07 130.46 153.489 129.682 154.156 128.995C154.156 128.995 153.662 130.757 153.459 132.341C153.483 132.378 153.506 132.415 153.53 132.449C153.801 131.441 154.532 130.056 156.448 128.974C156.448 128.974 154.133 130.7 154.444 133.655L154.542 133.679C154.837 133.167 155.991 131.495 158.486 131.414C158.486 131.414 155.348 132.803 155.812 135.202C155.812 135.202 153.012 135.603 150.3 134.798C148.851 134.528 147.497 134.201 146.925 134.066C145.198 133.659 137.144 135.785 140.279 134.12C143.147 132.594 143.736 128.294 144.03 123.04C142.124 124.678 140.137 125.51 138.959 125.453C137.662 125.433 137.269 124.401 138.864 122.268C137.635 123.043 135.942 124.206 134.791 124.24C134.08 124.29 133.562 123.936 133.454 122.844C131.67 124.095 130.421 124.748 129.791 124.688C128.653 124.688 129.239 122.713 131.975 118.217C129.344 119.96 127.113 120.459 125.427 120.354C122.515 120.212 121.178 118.298 122.116 117.881C124.828 117.25 128.768 115.491 131.081 112.59C129.916 113.628 128.603 114.285 127.827 114.292C126.622 114.369 126.561 113.028 129.899 109.378C127.854 111.228 125.942 111.828 124.493 111.794C124.377 111.794 124.273 111.781 124.164 111.774C124.137 111.774 124.107 111.771 124.08 111.767C122.644 111.629 121.74 110.504 121.767 110.521C121.378 109.857 122.028 109.493 122.607 109.277C125.911 107.707 128.731 104.889 130.857 102.207L130.759 102.23C131.975 100.697 132.97 99.2077 133.698 98.0214C132.174 99.147 130.969 99.6188 130.302 99.6424C129.473 99.7165 129.364 99.174 130.322 98.3618C132.713 96.4477 134.663 92.6262 135.854 89.8257C135.37 90.1459 134.964 90.3177 134.696 90.2975C133.935 90.3413 134.077 89.1147 136.156 85.8863C134.588 87.2983 133.234 87.9723 132.52 87.915C131.92 87.9082 131.707 87.4466 132.107 86.5367C132.374 85.9233 132.814 85.4044 133.305 84.9461C138.488 80.127 139.121 74.5633 139.155 74.2296C138.39 75.1294 137.493 75.7832 137.344 75.827C136.972 75.9652 137.12 75.2676 138.234 73.3332C136.636 74.5734 135.326 75.1159 134.859 75.0485C134.399 75.0418 134.514 74.6037 135.56 73.7882C136.301 73.2456 137.737 71.655 137.723 71.7089C140.641 68.1166 143.336 62.1956 144.497 59.4659C144.474 59.4626 144.447 59.4491 144.423 59.4524C144.806 58.556 145.022 58 145.022 58C145.029 58.0404 145.043 58.0842 145.053 58.1247C145.103 58.0438 145.124 58 145.124 58C145.205 58.3808 147.778 69.9296 153.571 74.3948C154.952 75.4597 154.62 76.0663 153.669 76.0056C152.971 75.9888 151.891 75.5945 150.886 74.7621C151.401 75.8978 151.221 75.8674 151.57 76.9593C153.181 80.9459 155.656 85.7582 157.322 86.8838C158.375 87.5982 158.408 88.1003 157.779 88.1205C157.755 88.1205 157.721 88.1205 157.698 88.1205C157.66 88.1205 157.626 88.1205 157.582 88.1205C157.044 88.0902 156.127 87.7633 154.976 87.0118C155.646 89.1585 157.494 94.0146 161.181 96.8757C163.602 98.7493 162.871 99.5076 161.3 99.4402C161.114 99.4368 160.917 99.4166 160.707 99.3896C161.808 101.9 164.543 106.285 170.583 107.643C172.651 108.172 171.473 109.944 168.758 109.789C168.196 109.766 167.566 109.651 166.886 109.432C167.759 109.813 171.124 111.35 172.066 112.785V112.782Z" fill="#447C2A"/>
<path d="M141.506 102.362L101.591 77.6467L44.7993 119.643H49.8573L101.598 81.4885L140.094 105.338L141.506 102.362Z" fill="#447C2A"/>
<path d="M100.435 98.6449H96.1526V106.207H100.435V98.6449Z" fill="#447C2A"/>
<path d="M100.435 108.168H96.1526V115.73H100.435V108.168Z" fill="#447C2A"/>
<path d="M106.688 98.6449H102.406V106.207H106.688V98.6449Z" fill="#447C2A"/>
<path d="M106.688 108.168H102.406V115.73H106.688V108.168Z" fill="#447C2A"/>
<path d="M141.188 108.775L140.575 109.752L101.635 85.5695L55.5616 119.643H53.6624L101.567 84.171L141.188 108.775Z" fill="#447C2A"/>
</g>
<defs>
<clipPath id="clip0_1_1132">
<rect width="140" height="77" fill="white" transform="translate(32 58)"/>
</clipPath>
</defs>
</svg>
